<?xml version="1.0" encoding="UTF-8"?>
<svg version="1.1" xmlns="http://www.w3.org/2000/svg" width="914" height="170">
<path d="M0 0 C301.62 0 603.24 0 914 0 C914 56.1 914 112.2 914 170 C612.38 170 310.76 170 0 170 C0 113.9 0 57.8 0 0 Z " fill="#FE9E0D" transform="translate(0,0)"/>
<path d="M0 0 C301.62 0 603.24 0 914 0 C914 56.1 914 112.2 914 170 C892.22 170 870.44 170 848 170 C851.02699335 168.48650332 853.96839337 167.23215465 857.12597656 166.04785156 C876.12029059 158.83518466 892.0500301 145.76350937 900.88671875 127.203125 C910.66027996 105.34532037 911.49802113 84.21656782 903.90234375 61.75390625 C896.16616399 41.58739021 881.03729575 26.39918591 861.65332031 17.39990234 C844.04991746 10.34949695 826.39570765 10.55786413 807.71878834 10.60219461 C803.84776574 10.60804563 799.97678654 10.59642478 796.10577607 10.58713293 C789.33339584 10.57326882 782.5610824 10.57047295 775.78869057 10.57509232 C765.7174665 10.58194383 755.6463097 10.57164213 745.57509499 10.55813476 C726.53881871 10.53325874 707.50257054 10.52870409 688.46628061 10.53060073 C673.76383499 10.53197512 659.0613991 10.52814972 644.35895538 10.52067566 C642.24480775 10.51962531 640.13066011 10.5185777 638.01651247 10.5175328 C636.44227102 10.51675378 636.44227102 10.51675378 634.83622671 10.51595903 C633.78478633 10.51543888 632.73334594 10.51491874 631.65004373 10.51438284 C630.59681065 10.51385885 629.54357757 10.51333486 628.45842834 10.51279498 C598.84578891 10.49821694 569.23315304 10.48992689 539.6205101 10.49454498 C537.94686321 10.49480292 537.94686321 10.49480292 536.23940528 10.49506606 C530.58458994 10.49595491 524.92977462 10.49689973 519.2749593 10.49786407 C518.15194535 10.4980551 517.02893141 10.49824613 515.87188674 10.49844296 C513.60088134 10.49883005 511.32987594 10.49922038 509.05887054 10.49961393 C473.72427887 10.50558357 438.38975269 10.49014512 403.05517578 10.45800781 C363.33310635 10.42191043 323.61107845 10.4026009 283.88899159 10.40754652 C279.65143029 10.40801648 275.41386899 10.40842674 271.17630768 10.40879822 C269.61127901 10.4089518 269.61127901 10.4089518 268.01463359 10.40910848 C252.28269355 10.41030197 236.55079848 10.39835364 220.81887054 10.37965393 C202.9216452 10.35839041 185.02451401 10.35459423 167.12728444 10.37395352 C157.11996124 10.38425899 147.11286792 10.38086264 137.10556563 10.35742267 C130.41000027 10.3431343 123.71460405 10.34722455 117.01904995 10.36586843 C113.21141039 10.37596582 109.40421644 10.37849476 105.59660563 10.35854775 C79.18414749 10.22954333 55.40486949 12.53845141 35 31 C34.24203125 31.66515625 33.4840625 32.3303125 32.703125 33.015625 C19.91784199 44.91916435 9.98959263 63.18449514 8.81274414 80.8034668 C8.73243672 83.85089579 8.72697921 86.88916421 8.75 89.9375 C8.74226562 90.95779297 8.73453125 91.97808594 8.7265625 93.02929688 C8.7822815 114.85721681 17.82375287 133.56609163 33 149 C33.68707031 149.69996094 34.37414063 150.39992187 35.08203125 151.12109375 C44.42247156 160.01097478 55.66329293 165.56560536 68 169 C68 169.33 68 169.66 68 170 C45.56 170 23.12 170 0 170 C0 113.9 0 57.8 0 0 Z " fill="#FEFEFE" transform="translate(0,0)"/>
</svg>
