<?xml version="1.0" encoding="UTF-8"?>
<svg version="1.1" xmlns="http://www.w3.org/2000/svg" width="392" height="94">
<path d="M0 0 C3.87583414 0.08125156 7.7501379 0.19406419 11.625 0.3125 C13.26662109 0.34633789 13.26662109 0.34633789 14.94140625 0.38085938 C22.02304192 0.6169139 26.86859109 1.28061858 32.375 6.0625 C34.74714842 10.35061446 34.79802191 14.20419526 34 19 C32.89484234 21.32940558 31.6274738 22.96565775 30 25 C29.76674006 27.07447879 29.76674006 27.07447879 31.3125 28.33984375 C31.869375 28.86707031 32.42625 29.39429687 33 29.9375 C35.80380096 33.11336933 36.4982309 35.33302198 36.625 39.5625 C36.30293185 44.46732955 35.57235315 47.42764685 32 51 C23.78296451 57.61585727 13.01432725 56.94700964 3 56 C1.66018693 55.69374875 0.32419138 55.36797563 -1 55 C-0.9285376 54.00556885 -0.8570752 53.0111377 -0.78344727 51.98657227 C-0.0149076 40.62523994 0.12038532 29.32124911 0.0625 17.9375 C0.05746611 16.1842461 0.0529066 14.43099076 0.04882812 12.67773438 C0.03799243 8.45178653 0.02083624 4.22590988 0 0 Z M11 9 C11 13.95 11 18.9 11 24 C16.98481044 23.90148412 16.98481044 23.90148412 22.0625 21.3125 C23.27805828 18.31412291 23.4093768 16.20678493 23 13 C21.36704163 10.82272218 20.41305271 10.09345407 17.73828125 9.48828125 C16.93777344 9.43027344 16.13726562 9.37226563 15.3125 9.3125 C13.1778125 9.1578125 13.1778125 9.1578125 11 9 Z M10 32 C9.97306425 34.12493141 9.95363372 36.24995912 9.9375 38.375 C9.92589844 39.55835938 9.91429687 40.74171875 9.90234375 41.9609375 C9.78533407 44.91921521 9.78533407 44.91921521 11 47 C17.58690369 47.57955763 17.58690369 47.57955763 23.625 45.4375 C25.51879045 42.08032602 25.48258091 39.79170715 25 36 C23.60967703 33.91451554 22.60621936 33.24697826 20.3125 32.3125 C16.86122833 31.84611194 13.48161204 31.94197313 10 32 Z " fill="#FE9C56" transform="translate(186,15)"/>
<path d="M0 0 C-0.51388124 11.41170747 -1.66521029 22.71612695 -2.98364258 34.06152344 C-3.93720666 42.49812129 -4.72267798 50.60194483 -3 59 C-6.3 59.66 -9.6 60.32 -13 61 C-13.99 59.02 -14.98 57.04 -16 55 C-16.66 55.66 -17.32 56.32 -18 57 C-21.84519967 59.56346645 -24.50625032 59.73832398 -29 59 C-32.47888768 57.60844493 -33.68655592 56.52621998 -35.60546875 53.3046875 C-38.30062555 46.91784534 -38.1246253 39.6382109 -36.0859375 33.04296875 C-33.62624408 27.75066064 -30.83088776 24.25559827 -26 21 C-21.36297289 19.4543243 -16.87528349 19.94264372 -12 20 C-12 13.73 -12 7.46 -12 1 C-7.76358987 0.15271797 -4.27587998 -0.08384078 0 0 Z M-24.9375 31.375 C-27.74515082 35.66905419 -27.56406992 39.99589399 -27 45 C-25.66177841 47.84074462 -25.66177841 47.84074462 -23 49 C-17.94307101 48.85718492 -17.94307101 48.85718492 -14 46 C-13.69400937 43.43083343 -13.48912913 40.95241616 -13.375 38.375 C-13.31699219 37.31539062 -13.31699219 37.31539062 -13.2578125 36.234375 C-13.16352276 34.49001476 -13.08067109 32.74504309 -13 31 C-16.7128368 29.1435816 -21.53519672 28.96046219 -24.9375 31.375 Z " fill="#FE9D59" transform="translate(305,14)"/>
<path d="M0 0 C4.49488795 5.99318394 4.21851596 13.94648599 4.44140625 21.14453125 C4.65309762 26.17910423 5.51833541 30.64226551 6.875 35.5 C3.905 36.82 0.935 38.14 -2.125 39.5 C-3.61 37.025 -3.61 37.025 -5.125 34.5 C-6.300625 35.4590625 -6.300625 35.4590625 -7.5 36.4375 C-11.593024 39.65344743 -13.90286753 39.85404288 -19.125 39.5 C-22.87446817 38.05134184 -23.96017422 36.77116499 -26.0625 33.3125 C-27.34325347 28.71685521 -27.27224499 25.76764942 -25.125 21.5 C-22.55669274 18.54498738 -19.86576039 16.74692013 -16.125 15.5 C-14.39704648 15.43197033 -12.66664635 15.41504355 -10.9375 15.4375 C-10.03644531 15.44652344 -9.13539062 15.45554687 -8.20703125 15.46484375 C-7.51996094 15.47644531 -6.83289063 15.48804687 -6.125 15.5 C-7.115 13.52 -8.105 11.54 -9.125 9.5 C-13.73000468 9.31941158 -16.92571804 9.63365246 -21.125 11.5 C-22.115 11.5 -23.105 11.5 -24.125 11.5 C-24.785 9.19 -25.445 6.88 -26.125 4.5 C-18.20421523 -1.02612891 -9.3510747 -4.48851585 0 0 Z M-16.125 23.5 C-16.29187448 25.91645782 -16.29187448 25.91645782 -16.125 28.5 C-15.465 29.16 -14.805 29.82 -14.125 30.5 C-10.68334679 30.14700993 -9.05627462 29.45418308 -6.125 27.5 C-5.87469023 24.91619823 -5.87469023 24.91619823 -6.125 22.5 C-10.20275191 21.5732382 -12.54681037 21.16041447 -16.125 23.5 Z " fill="#FE9F5C" transform="translate(77.125,32.5)"/>
<path d="M0 0 C-0.0721875 1.09957031 -0.144375 2.19914062 -0.21875 3.33203125 C-1.15413281 15.66081155 -1.15413281 15.66081155 -1 28 C-0.67 28.33 -0.34 28.66 0 29 C2.97 28.67 5.94 28.34 9 28 C9 19.42 9 10.84 9 2 C14.94 1.505 14.94 1.505 21 1 C20.9278125 1.98097656 20.855625 2.96195313 20.78125 3.97265625 C19.42813405 21.04302304 19.42813405 21.04302304 21 38 C18.03 38.99 15.06 39.98 12 41 C11.01 39.02 10.02 37.04 9 35 C8.27296875 35.54140625 8.27296875 35.54140625 7.53125 36.09375 C2.43702592 39.62052052 -0.79833147 41.01666697 -7 40 C-10.6145053 37.27193004 -11.87105895 35.83792271 -12.56762695 31.3112793 C-12.56684281 29.89867837 -12.53902725 28.4859081 -12.48828125 27.07421875 C-12.48120651 26.32662796 -12.47413177 25.57903717 -12.46684265 24.80879211 C-12.43897645 22.43398598 -12.37626132 20.06158649 -12.3125 17.6875 C-12.28740668 16.07229982 -12.26459531 14.45706246 -12.24414062 12.84179688 C-12.18917647 8.89361181 -12.10296527 4.94721311 -12 1 C-7.92507503 0.27518842 -4.14330288 -0.09865007 0 0 Z " fill="#FEA05D" transform="translate(242,31)"/>
<path d="M0 0 C3.46069403 1.69888616 5.36595034 2.96246419 7.375 6.25 C8.6397014 11.81468617 8.66130518 16.83393701 6 22 C3.26070623 24.73929377 -3.96530365 23.9757256 -7.6640625 24.0625 C-9.77614442 24.0625 -11.88819275 24.03406141 -14 24 C-12.3672149 27.74667202 -12.3672149 27.74667202 -10 31 C-7.95952472 30.9739796 -7.95952472 30.9739796 -5.625 30.6875 C-4.83351562 30.60886719 -4.04203125 30.53023437 -3.2265625 30.44921875 C-0.7259341 30.0911488 -0.7259341 30.0911488 2 28 C2.99 28 3.98 28 5 28 C7 31 7 31 6.9375 32.875 C5.11833626 36.99843782 2.22009981 39.43062009 -1.8125 41.3125 C-6.71382044 42.36964755 -11.00924347 42.85964487 -15.75 40.8125 C-20.60836402 36.89881788 -22.9055407 33.16877058 -24 27 C-24.21863485 19.09270632 -22.38522154 12.59625762 -18 6 C-12.59435969 0.72620457 -7.44586844 -1.04526056 0 0 Z M-14 14 C-13.69915196 16.14286951 -13.69915196 16.14286951 -13 18 C-11.54119891 17.85892253 -10.08296449 17.71197585 -8.625 17.5625 C-7.81289062 17.48128906 -7.00078125 17.40007813 -6.1640625 17.31640625 C-3.95727195 17.10909886 -3.95727195 17.10909886 -2 16 C-2.27540704 12.18186553 -2.27540704 12.18186553 -4 9 C-8.99805938 8.1669901 -11.00985255 10.13039741 -14 14 Z " fill="#FE9F5B" transform="translate(170,29)"/>
<path d="M0 0 C0.02689216 1.47906892 0.04634621 2.95827483 0.0625 4.4375 C0.07410156 5.26121094 0.08570313 6.08492187 0.09765625 6.93359375 C0 9 0 9 -1 10 C-3.18639453 10.07258946 -5.37500389 10.08373783 -7.5625 10.0625 C-9.35880859 10.04896484 -9.35880859 10.04896484 -11.19140625 10.03515625 C-12.11824219 10.02355469 -13.04507813 10.01195312 -14 10 C-13.87882812 11.07894531 -13.75765625 12.15789063 -13.6328125 13.26953125 C-13.18111545 17.30208622 -12.73522447 21.33526622 -12.29101562 25.36865234 C-12.09857004 27.10873497 -11.90458512 28.84864812 -11.70898438 30.58837891 C-11.42686025 33.10014727 -11.15041903 35.61248863 -10.875 38.125 C-10.78750488 38.89303955 -10.70000977 39.6610791 -10.60986328 40.45239258 C-10.08192225 45.33186363 -9.92209086 50.09172443 -10 55 C-12.40545638 56.20272819 -13.94996953 56.10071472 -16.625 56.0625 C-17.85089844 56.04896484 -17.85089844 56.04896484 -19.1015625 56.03515625 C-19.72804688 56.02355469 -20.35453125 56.01195312 -21 56 C-22.0885786 52.73426419 -22.28708687 50.00176916 -22.5 46.56640625 C-22.5825 45.27669922 -22.665 43.98699219 -22.75 42.65820312 C-22.83354171 41.29298149 -22.91687401 39.92774702 -23 38.5625 C-23.57624701 29.36505743 -24.20102758 20.1810491 -25 11 C-29.29 11.66 -33.58 12.32 -38 13 C-38 9.7 -38 6.4 -38 3 C-33.45705171 1.4856839 -28.81811042 1.34100634 -24.0625 0.9375 C-23.02665771 0.84807129 -21.99081543 0.75864258 -20.92358398 0.66650391 C-13.92614505 0.08992768 -7.02241275 -0.27183533 0 0 Z " fill="#FE9F5B" transform="translate(46,18)"/>
<path d="M0 0 C1.11503906 0.00386719 2.23007813 0.00773437 3.37890625 0.01171875 C6.2835124 0.2973569 7.97850026 0.8034317 10.4375 2.3125 C9.21222971 6.36531712 7.73869506 9.75610764 5.4375 13.3125 C4.57125 12.838125 3.705 12.36375 2.8125 11.875 C-0.41637374 10.38015105 -3.05283826 9.73031687 -6.5625 9.3125 C-5.50903362 12.3551203 -4.70686369 13.23128244 -1.84765625 14.83984375 C0.29763953 15.77857318 2.443472 16.71607709 4.58984375 17.65234375 C7.81286565 19.53133457 8.91246393 20.94492888 10.4375 24.3125 C10.97572319 29.33591647 10.58127246 32.33038822 7.4375 36.3125 C3.7998229 40.03477425 1.08157151 42.13911858 -4.3359375 42.515625 C-8.70283597 42.11724128 -12.84249713 40.61502966 -16.5625 38.3125 C-17.2225 36.9925 -17.8825 35.6725 -18.5625 34.3125 C-16.5825 32.0025 -14.6025 29.6925 -12.5625 27.3125 C-8.5625 29.3125 -8.5625 29.3125 -5.5625 31.3125 C-2.43728167 31.47949232 -2.43728167 31.47949232 0.4375 31.3125 C0.7675 30.3225 1.0975 29.3325 1.4375 28.3125 C0.6125 28.085625 -0.2125 27.85875 -1.0625 27.625 C-6.28649419 25.66600218 -12.0505697 22.79287168 -15.5625 18.3125 C-16.44507803 13.62131947 -16.2584574 9.5239814 -13.875 5.375 C-9.32801927 1.31958475 -6.14604926 -0.09258243 0 0 Z " fill="#FE9F5C" transform="translate(104.5625,29.6875)"/>
<path d="M0 0 C0 3.3 0 6.6 0 10 C2.64 10 5.28 10 8 10 C8.04241723 12.33294775 8.04092937 14.66702567 8 17 C7.67 17.33 7.34 17.66 7 18 C4.36 18 1.72 18 -1 18 C-1 24.93 -1 31.86 -1 39 C1.64 38.67 4.28 38.34 7 38 C7.375 41.25 7.375 41.25 7 45 C3.85208666 47.9943566 1.73254149 48.89718716 -2.5625 49.5 C-6.57409061 48.91649591 -8.19847353 47.88392431 -11 45 C-12.0394775 41.8815675 -12.11494838 39.72524414 -12.09765625 36.45703125 C-12.09443359 35.38388672 -12.09121094 34.31074219 -12.08789062 33.20507812 C-12.07951172 32.08552734 -12.07113281 30.96597656 -12.0625 29.8125 C-12.05798828 28.68134766 -12.05347656 27.55019531 -12.04882812 26.38476562 C-12.03703498 23.58979073 -12.0205765 20.7949218 -12 18 C-13.65 18 -15.3 18 -17 18 C-16.67 15.69 -16.34 13.38 -16 11 C-14.68 11 -13.36 11 -12 11 C-12 8.03 -12 5.06 -12 2 C-10.7625 1.67 -9.525 1.34 -8.25 1 C-7.55390625 0.814375 -6.8578125 0.62875 -6.140625 0.4375 C-4 0 -4 0 0 0 Z " fill="#FEA05D" transform="translate(136,21)"/>
<path d="M0 0 C0.66 0.33 1.32 0.66 2 1 C1.50628906 1.40089844 1.01257813 1.80179688 0.50390625 2.21484375 C-3.25315454 5.54857375 -5.41871185 7.81446705 -5.9375 12.9375 C-5.98946424 14.29082964 -6.02149454 15.64584367 -6 17 C-6.33 17 -6.66 17 -7 17 C-7.62653784 8.03702815 -7.62653784 8.03702815 -5.1875 4 C-3 2 -3 2 0 0 Z " fill="#FEBF92" transform="translate(96,31)"/>
<path d="M0 0 C0.66 0.33 1.32 0.66 2 1 C-0.97 3.97 -3.94 6.94 -7 10 C-7 6.04435836 -5.59478606 4.89133304 -3 2 C-2.01 1.34 -1.02 0.68 0 0 Z " fill="#FEC59D" transform="translate(279,35)"/>
<path d="M0 0 C-1.30574169 2.91280837 -2.7074208 4.80294493 -5 7 C-5.66 7.99 -6.32 8.98 -7 10 C-6.67506385 6.4257023 -6.36129314 4.44287547 -4.0625 1.625 C-2 0 -2 0 0 0 Z " fill="#FEBB8B" transform="translate(58,50)"/>
<path d="M0 0 C0.66 0.33 1.32 0.66 2 1 C-0.64 3.64 -3.28 6.28 -6 9 C-6 5.06368636 -4.57142871 3.87394974 -2 1 C-1.34 0.67 -0.68 0.34 0 0 Z " fill="#FEC298" transform="translate(157,31)"/>
</svg>
